/vscmnt/brussel_pixiu_data/_data_brussel/112/vsc11236/PredSimResults/SUBJ04opt3D/expIG/worker_01.mot
version=1
nRows=7
nColumns=50
inDegrees=yes
endheader
                time	         pelvis_tilt	         pelvis_list	     pelvis_rotation	           pelvis_tx	           pelvis_ty	           pelvis_tz	       hip_flexion_r	     hip_adduction_r	      hip_rotation_r	        knee_angle_r	       ankle_angle_r	         mtp_angle_r	       hip_flexion_l	     hip_adduction_l	      hip_rotation_l	        knee_angle_l	       ankle_angle_l	         mtp_angle_l	    lumbar_extension	      lumbar_bending	     lumbar_rotation	 ercspn_r/activation	 intobl_r/activation	 extobl_r/activation	    abd_r/activation	    add_r/activation	hamstrings_r/activation	bifemsh_r/activation	glut_max_r/activation	iliopsoas_r/activation	rect_fem_r/activation	  vasti_r/activation	gastroc_r/activation	 soleus_r/activation	tib_ant_r/activation	 ercspn_l/activation	 intobl_l/activation	 extobl_l/activation	    abd_l/activation	    add_l/activation	hamstrings_l/activation	bifemsh_l/activation	glut_max_l/activation	iliopsoas_l/activation	rect_fem_l/activation	  vasti_l/activation	gastroc_l/activation	 soleus_l/activation	tib_ant_l/activation	
          2.92627412	         -2.36858398	         -7.15339587	         -6.17652198	          1.75576447	          0.87684719	         -0.00033112	        -11.01162357	          7.18039395	        -13.23393115	         -5.84491309	         13.61780004	         15.78174147	         32.16987618	         -7.22231490	         -1.75939062	        -12.63967060	          0.42686198	          0.22210271	        -15.17237708	         18.90544198	          3.88457448	          0.01325140	          0.00999999	          0.01499741	          0.06300336	          0.01000000	          0.01376646	          0.15979645	          0.01753781	          0.05433824	          0.00999999	          0.00999999	          0.19128862	          0.16041383	          0.01325140	          0.00999999	          0.07121937	          0.06754182	          0.00999999	          0.08580587	          0.03303464	          0.14930520	          0.04842596	          0.15166325	          0.08647800	          0.02438325	          0.02797018	          0.01325142	          0.26944483	
          2.94578261	         -2.57861004	         -7.05844015	         -5.41729273	          1.77034349	          0.87442729	         -0.00205240	        -11.49143436	          7.04323461	        -14.39424839	         -6.35731597	         13.54465313	         17.11638939	         31.81912590	         -6.74597677	         -1.95097270	        -13.10938696	          0.05998484	          0.21505553	        -14.72590333	         17.90904593	          4.36942129	          0.00999999	          0.00999999	          0.01131759	          0.04754462	          0.00999999	          0.01325141	          0.12058821	          0.01325140	          0.04100561	          0.00999999	          0.00999999	          0.18482335	          0.17094465	          0.00999999	          0.00999999	          0.06641229	          0.05096951	          0.04126370	          0.07464282	          0.04111601	          0.11267113	          0.03654399	          0.11445060	          0.06525944	          0.01840049	          0.02110732	          0.01000000	          0.29728972	
          2.96529111	         -2.78165018	         -6.92391011	         -4.60589363	          1.78532607	          0.87267205	         -0.00380897	        -11.86156026	          6.85055674	        -15.62020689	         -7.09825402	         13.23217830	         18.58653247	         31.55715872	         -6.31636238	         -2.28525687	        -13.69148107	         -0.37998665	          0.20091298	        -14.24085421	         16.80696783	          4.85351478	          0.01736360	          0.00999999	          0.00999999	          0.03587890	          0.00999999	          0.01000000	          0.09100025	          0.00999999	          0.03255602	          0.03150043	          0.00999999	          0.15901041	          0.16925825	          0.00999999	          0.00999999	          0.05011713	          0.03846344	          0.06530346	          0.08974185	          0.04272713	          0.08502573	          0.02757742	          0.08636858	          0.04924715	          0.04502597	          0.01592835	          0.00999999	          0.31881809	
          2.98479960	         -2.98077220	         -6.77694470	         -3.73992153	          1.80045802	          0.87182596	         -0.00566016	        -12.06342780	          6.61075607	        -16.92116159	         -8.13357057	         12.61324018	         20.17819924	         31.40843911	         -5.90679720	         -2.74278759	        -14.48303257	         -0.69778658	          0.18574063	        -13.75355962	         15.64543102	          5.33772086	          0.02949520	          0.00999999	          0.00999999	          0.02707552	          0.00999999	          0.01000000	          0.06867209	          0.01416529	          0.02456795	          0.02377137	          0.02260707	          0.11999504	          0.15259042	          0.00999999	          0.00999999	          0.03782021	          0.02902591	          0.07598246	          0.07980980	          0.04659959	          0.06416351	          0.02081092	          0.06517687	          0.03716369	          0.08287679	          0.01202011	          0.00999999	          0.32804181	
          3.00430809	         -3.17839503	         -6.62562469	         -2.82703814	          1.81564970	          0.87200850	         -0.00763027	        -12.07659829	          6.31373213	        -18.29455540	         -9.48297419	         11.65251397	         21.85562484	         31.24552631	         -5.49137396	         -3.20673638	        -15.27319501	         -0.83425648	          0.17249786	        -13.27370588	         14.44888158	          5.82133783	          0.05084256	          0.00999999	          0.00999999	          0.02043217	          0.01000000	          0.01000003	          0.05182246	          0.02327833	          0.01853987	          0.01793874	          0.03423874	          0.09055262	          0.12569590	          0.00999999	          0.01000000	          0.02854051	          0.02190401	          0.07987073	          0.06511141	          0.05219068	          0.04842011	          0.03958162	          0.04918484	          0.02804507	          0.10906605	          0.00999999	          0.00999999	          0.32576915	
          3.02381659	         -3.37497404	         -6.48240939	         -1.87501569	          1.83087266	          0.87321623	         -0.00974056	        -11.89803329	          5.95446517	        -19.72915179	        -11.14437966	         10.32433506	         23.58342961	         30.95341756	         -5.05500088	         -3.57583543	        -15.86497426	         -0.83380639	          0.16539880	        -12.80023487	         13.24669108	          6.30483667	          0.07046169	          0.00999999	          0.00999999	          0.01541886	          0.01000001	          0.01378046	          0.03910711	          0.03116266	          0.01399086	          0.01353723	          0.03967222	          0.06833430	          0.09485469	          0.00999999	          0.01598744	          0.02153770	          0.01652956	          0.08875095	          0.06500395	          0.05865752	          0.03653958	          0.04612841	          0.03711667	          0.02116383	          0.11448139	          0.00999999	          0.00999999	          0.31651088	
          3.04332508	         -3.56795732	         -6.35920141	         -0.89288471	          1.84614294	          0.87526927	         -0.01199508	        -11.53507586	          5.52711856	        -21.19863803	        -13.11732187	          8.66424546	         25.29204258	         30.48158153	         -4.59405282	         -3.77052857	        -16.17865517	         -0.75357186	          0.16701288	        -12.32503966	         12.06170396	          6.78593038	          0.08532773	          0.00999999	          0.00999999	          0.01163563	          0.01755999	          0.02087994	          0.02951165	          0.02819331	          0.01055801	          0.01021568	          0.04855728	          0.05156754	          0.07158080	          0.00999999	          0.01894970	          0.01625313	          0.01247381	          0.10275841	          0.08204404	          0.06621490	          0.02757409	          0.04456638	          0.02800959	          0.01597100	          0.10617608	          0.00999999	          0.00999999	          0.30421053	
